# xmcd
#
# Track frame offsets: 
#        150
#        13137
#        26094
#        46523
#        57467
#        66978
#        82670
#        101265
#        114101
#        126495
#        140960
#        151882
#        166500
#        179637
#
# Disc length: 2532 seconds
#
# Revision: 1
# Processed by: cddbd v1.5.1PL2 Copyright (c) Steve Scherf et al.
# Submitted via: ExactAudioCopy v0.95a5
#
DISCID=b209e20e
DTITLE=The Oak Ridge Boys - Christmas Cookies
DYEAR=2005
DGENRE=Country
TTITLE0=Hark! The Herald Angels Sing
TTITLE1=Christmas Cookies
TTITLE2=From Love To Love
TTITLE3=Away In A Manger
TTITLE4=Hay Baby
TTITLE5=Little Annie's Christmas Wish
TTITLE6=I'll Be Home For Christmas
TTITLE7=Blessed Be The Day (Of Our Saviour's Birth)
TTITLE8=Jingle Bells
TTITLE9=Ordinary Days
TTITLE10=Uncle Luther Made The Stuffin'
TTITLE11=Back To Tennessee
TTITLE12=The Warmest Night Of The Year
TTITLE13=O Come All Ye Faithful
EXTD=
EXTT0=
EXTT1=
EXTT2=
EXTT3=
EXTT4=
EXTT5=
EXTT6=
EXTT7=
EXTT8=
EXTT9=
EXTT10=
EXTT11=
EXTT12=
EXTT13=
PLAYORDER=
